:SAMPLES-PER-SECOND 30
:FULLY-SPECIFIED
:DEGREES
194
root  47.3244 36.9037 0.946669 -167.901 -81.2074 174.525
RightUpLeg  -42.0858 -16.5186 -5.03114
RightLeg  37.8635 4.2392 3.16325
RightFoot  1.11452 -1.56226 14.2145
RightToes  2.32829e-010 0 -3.6325e-017
Spine  43.038 -1.5852 10.0319
Spine1  -12.7742 3.49035 -13.1638
HEad  -47.0148 2.56068 -4.39083
LeftShoulder1  11.5117 -25.3661 -33.6489
LeftArm  -47.8839 -60.6289 -4.91789
LeftForeArm  -22.7782 -23.0796 -5.99004
LeftHand  -0.244104 0.0205437 5.32207
RightShoulder  6.65452 16.7392 26.7669
RightArm  -33.7802 55.3959 21.11
RightForeArm  -67.7947 34.1061 9.9073
RightHand  -1.1467 -21.4767 6.69513
LeftUpLeg  -42.6485 23.7847 -10.2334
LeftLeg  32.1006 3.9204 3.00983
LeftFoot  0.198812 -0.905513 8.92839
LeftToes  1.42787e-010 7.94111e-011 2.6399e-011
195
root  48.2287 36.4114 1.11245 -171.229 -80.6137 177.939
RightUpLeg  -45.3086 -15.7371 -4.42811
RightLeg  50.1129 -0.489054 -1.00708
RightFoot  -1.28246 -0.815902 9.26471
RightToes  2.32829e-010 0 -3.6325e-017
Spine  46.2754 -1.74565 10.648
Spine1  -13.4657 3.50319 -12.2088
HEad  -47.1473 2.62298 -5.56529
LeftShoulder1  12.3127 -25.4106 -36.3125
LeftArm  -43.7179 -60.1759 -9.81437
LeftForeArm  -26.1005 -23.2902 -6.14675
LeftHand  -0.244104 0.0205437 5.32207
RightShoulder  7.81104 17.5098 31.1718
RightArm  -31.2793 52.4792 22.61
RightForeArm  -83.0226 37.7539 10.9987
RightHand  0.861853 -20.9281 -7.06125
LeftUpLeg  -45.6388 23.7749 -10.4275
LeftLeg  34.0417 4.36791 3.53622
LeftFoot  0.712521 -0.983636 9.25305
LeftToes  1.42787e-010 7.94111e-011 2.6399e-011
196
root  49.2439 35.7301 1.19223 -172.912 -80.2236 -179.716
RightUpLeg  -48.6263 -15.2402 -3.16423
RightLeg  62.9128 -2.23308 -5.25144
RightFoot  -1.79943 -0.56489 6.58347
RightToes  2.32829e-010 0 -3.6325e-017
Spine  49.2611 -1.81807 10.636
Spine1  -13.8462 3.50976 -11.037
HEad  -49.012 2.87831 -7.06527
LeftShoulder1  12.8464 -25.6379 -37.7619
LeftArm  -45.5183 -61.0465 -9.85531
LeftForeArm  -30.4398 -20.9197 -5.66141
LeftHand  -0.244104 0.0205437 5.32207
RightShoulder  8.38365 17.918 33.1311
RightArm  -31.9921 52.2811 23.5511
RightForeArm  -90.1216 36.8612 10.6083
RightHand  1.15735 -18.4953 -10.6435
LeftUpLeg  -49.8612 23.3869 -10.9343
LeftLeg  36.5616 4.75056 4.13942
LeftFoot  0.990094 -1.04389 9.58222
LeftToes  1.42787e-010 7.94111e-011 2.6399e-011
197
root  50.2401 35.0585 1.14443 -169.056 -79.7444 179.1
RightUpLeg  -50.6294 -15.5882 -0.852984
RightLeg  70.0433 -2.71352 -9.00589
RightFoot  -5.02459 -0.4336 7.52635
RightToes  2.32829e-010 0 -3.6325e-017
Spine  50.9523 -1.34633 9.50855
Spine1  -13.6926 3.43046 -9.4967
HEad  -53.3857 3.06103 -8.14676
LeftShoulder1  12.932 -25.7453 -37.8834
LeftArm  -50.4624 -61.671 -6.46354
LeftForeArm  -33.6191 -21.7642 -5.91129
LeftHand  -0.244104 0.0205437 5.32207
RightShoulder  8.41458 18.199 32.7586
RightArm  -33.7638 53.0352 23.767
RightForeArm  -89.6971 36.1379 10.3693
RightHand  0.583006 -21.1582 -5.04047
LeftUpLeg  -56.0962 23.8002 -13.456
LeftLeg  37.9444 4.13047 3.82298
LeftFoot  1.52256 -1.03726 9.10709
LeftToes  1.42787e-010 7.94111e-011 2.6399e-011
198
root  51.1305 34.474 0.986898 -160.69 -79.4791 174.411
RightUpLeg  -51.0824 -16.3587 1.63012
RightLeg  70.5848 -3.61626 -12.1328
RightFoot  -13.5501 0.105113 9.9406
RightToes  2.32829e-010 0 -3.6325e-017
Spine  52.6361 -1.0555 8.25794
Spine1  -13.4256 2.96948 -8.36722
HEad  -57.9264 2.59275 -8.20546
LeftShoulder1  12.4967 -25.8216 -36.3327
LeftArm  -54.7827 -60.5562 -5.98843
LeftForeArm  -34.25 -27.2827 -7.42354
LeftHand  -0.244104 0.0205437 5.32207
RightShoulder  8.08388 18.1968 31.228
RightArm  -35.5906 53.2332 23.3551
RightForeArm  -92.6251 40.5648 11.8235
RightHand  0.303077 -23.3599 -2.84148
LeftUpLeg  -63.0322 24.6723 -17.8832
LeftLeg  38.079 2.51359 2.48825
LeftFoot  2.83752 -1.04929 8.28477
LeftToes  1.42787e-010 7.94111e-011 2.6399e-011
199
root  52.0038 33.8983 0.853428 -153.74 -79.7712 169.766
RightUpLeg  -51.9864 -16.4889 3.24208
RightLeg  69.1877 -4.55693 -13.8766
RightFoot  -21.567 0.811807 10.84
RightToes  2.32829e-010 0 -3.6325e-017
Spine  55.7984 -1.70286 7.96937
Spine1  -13.4552 2.22974 -8.05882
HEad  -59.9522 1.84759 -7.98844
LeftShoulder1  11.9463 -25.9359 -34.3341
LeftArm  -57.3517 -58.204 -10.8123
LeftForeArm  -30.1162 -36.2671 -9.78426
LeftHand  -0.244104 0.0205437 5.32207
RightShoulder  7.61245 17.7562 29.7714
RightArm  -36.8152 52.6599 23.6305
RightForeArm  -98.5937 50.795 16.0417
RightHand  1.44953 -20.4977 -11.4426
LeftUpLeg  -68.3324 25.0294 -21.992
LeftLeg  37.9711 0.816278 1.05704
LeftFoot  4.98169 -1.28607 8.71164
LeftToes  1.42787e-010 7.94111e-011 2.6399e-011
200
root  52.9235 33.3192 0.839159 -153.341 -80.0614 170.061
RightUpLeg  -55.1711 -15.0055 4.37315
RightLeg  70.2646 -4.85979 -15.6485
RightFoot  -23.501 0.814797 9.06234
RightToes  2.32829e-010 0 -3.6325e-017
Spine  59.4413 -2.7312 8.32628
Spine1  -13.2743 1.53817 -7.67277
HEad  -59.7515 1.90767 -8.27805
LeftShoulder1  11.3279 -25.7346 -32.5142
LeftArm  -60.0288 -55.8276 -17.118
LeftForeArm  -23.3842 -47.0861 -13.566
LeftHand  -0.244104 0.0205437 5.32207
RightShoulder  7.23098 17.1757 28.9257
RightArm  -35.4959 51.8588 26.2982
RightForeArm  -86.8064 60.0088 22.4706
RightHand  2.10206 -21.264 -15.6026
LeftUpLeg  -71.9424 25.3013 -24.3967
LeftLeg  38.1183 -0.375178 0.0563787
LeftFoot  7.1414 -1.7284 10.3274
LeftToes  1.42787e-010 7.94111e-011 2.6399e-011
201
root  53.7706 32.7346 0.825977 -154.813 -79.8448 172.51
RightUpLeg  -59.6884 -12.6021 5.46563
RightLeg  72.7076 -4.86016 -18.0805
RightFoot  -22.6475 0.478847 6.4096
RightToes  2.32829e-010 0 -3.6325e-017
Spine  61.5857 -3.01196 7.65192
Spine1  -12.057 1.02238 -6.2876
HEad  -59.3031 2.82012 -8.72491
LeftShoulder1  10.5375 -24.9467 -30.8226
LeftArm  -62.0091 -54.1822 -21.2704
LeftForeArm  -17.209 -56.3561 -18.4567
LeftHand  -0.244104 0.0205437 5.32207
RightShoulder  7.08057 16.9138 28.6327
RightArm  -31.7255 50.6286 30.2635
RightForeArm  -68.2367 65.6741 29.6624
RightHand  1.96006 -22.5796 -12.6908
LeftUpLeg  -76.0174 25.8027 -26.7638
LeftLeg  38.638 -1.47444 -0.891294
LeftFoot  8.28472 -1.94467 10.9208
LeftToes  1.42787e-010 7.94111e-011 2.6399e-011
202
root  54.4499 32.3367 0.782181 -158.628 -79.9251 177.017
RightUpLeg  -61.3533 -11.0699 7.01755
RightLeg  72.9471 -5.29077 -19.7836
RightFoot  -24.2292 0.323092 4.34331
RightToes  2.32829e-010 0 -3.6325e-017
Spine  63.4599 -3.24744 7.23701
Spine1  -10.1195 0.639328 -4.54989
HEad  -59.4161 3.4745 -8.86733
LeftShoulder1  9.90766 -23.9191 -29.9391
LeftArm  -63.1721 -52.8888 -22.362
LeftForeArm  -12.6934 -62.2389 -23.3427
LeftHand  -0.244104 0.0205437 5.32207
RightShoulder  7.0446 16.9896 28.3206
RightArm  -28.274 48.7747 32.0659
RightForeArm  -70.5794 70.2085 37.4251
RightHand  0.125339 -8.26989 -7.28891
LeftUpLeg  -79.3216 26.7562 -28.6543
LeftLeg  39.0037 -2.94895 -2.18164
LeftFoot  8.48653 -1.67638 9.2706
LeftToes  1.42787e-010 7.94111e-011 2.6399e-011
203
root  55.0333 32.1299 0.764575 -160.575 -79.8438 179.884
RightUpLeg  -62.1564 -10.1699 8.18191
RightLeg  71.6935 -5.87839 -20.0968
RightFoot  -26.8331 0.200677 2.80011
RightToes  2.32829e-010 0 -3.6325e-017
Spine  64.7832 -3.37308 7.30294
Spine1  -8.08754 0.527063 -3.437
HEad  -59.5886 3.27075 -8.83924
LeftShoulder1  9.65106 -23.1438 -30.0366
LeftArm  -62.7908 -51.818 -22.2418
LeftForeArm  -7.9912 -65.7391 -27.3781
LeftHand  -0.244104 0.0205437 5.32207
RightShoulder  6.85212 16.9616 27.3931
RightArm  -26.5354 47.2989 30.7616
RightForeArm  -61.7956 71.6647 41.6301
RightHand  -0.0333708 -1.73876 -0.13479
LeftUpLeg  -82.0178 27.5764 -30.911
LeftLeg  38.3599 -4.52449 -3.45952
LeftFoot  8.92345 -1.29557 6.94023
LeftToes  1.42787e-010 7.94111e-011 2.6399e-011
204
root  55.5843 32.0469 0.821024 -159.776 -79.2498 -179.69
RightUpLeg  -64.4197 -9.44935 8.70343
RightLeg  71.0657 -5.94017 -19.5387
RightFoot  -26.5093 0.00844909 1.39151
RightToes  2.32829e-010 0 -3.6325e-017
Spine  66.0111 -4.21708 7.68061
Spine1  -7.03776 0.246603 -5.0536
HEad  -59.3519 3.13392 -7.86893
LeftShoulder1  8.72885 -22.3771 -27.4883
LeftArm  -61.1978 -51.1228 -24.6394
LeftForeArm  -2.22252 -68.2554 -31.0195
LeftHand  -0.244104 0.0205437 5.32207
RightShoulder  6.65748 16.5604 27.0909
RightArm  -26.3104 47.2523 28.9368
RightForeArm  -48.5079 72.1289 43.6736
RightHand  0.206993 1.42225 3.60593
LeftUpLeg  -84.3591 28.0484 -33.7738
LeftLeg  36.6695 -6.03394 -4.44296
LeftFoot  10.1815 -1.1557 5.74207
LeftToes  1.42787e-010 7.94111e-011 2.6399e-011
205
root  56.0537 32.0755 0.92669 -159.049 -78.5535 -179.402
RightUpLeg  -66.7934 -9.32364 9.25827
RightLeg  70.792 -5.72131 -18.6117
RightFoot  -24.2157 -0.117187 0.424484
RightToes  2.32829e-010 0 -3.6325e-017
Spine  67.4221 -5.89721 8.2529
Spine1  -7.13119 -0.398668 -8.65054
HEad  -58.3271 3.54143 -5.83879
LeftShoulder1  7.70248 -21.9251 -23.957
LeftArm  -60.0816 -50.4805 -28.0113
LeftForeArm  2.06151 -70.3383 -34.9034
LeftHand  -0.244104 0.0205437 5.32207
RightShoulder  7.2174 16.5006 30.0684
RightArm  -27.2762 47.8408 26.0188
RightForeArm  -40.8128 72.7366 45.8419
RightHand  0.2018 1.36668 3.32425
LeftUpLeg  -86.1804 28.5897 -36.8013
LeftLeg  34.5977 -7.82288 -5.41544
LeftFoot  11.7673 -1.13151 5.17947
LeftToes  1.42787e-010 7.94111e-011 2.6399e-011
206
root  56.393 32.214 1.03831 -159.636 -78.2882 -178.371
RightUpLeg  -67.4127 -10.0654 10.0836
RightLeg  69.5585 -5.67099 -17.2402
RightFoot  -23.0614 -0.159665 -0.0276861
RightToes  2.32829e-010 0 -3.6325e-017
Spine  68.3745 -5.67393 8.20497
Spine1  -6.221 -0.261179 -7.316
HEad  -57.4866 3.28751 -6.15965
LeftShoulder1  8.29176 -22.2713 -25.9009
LeftArm  -61.9928 -50.9484 -28.226
LeftForeArm  -2.42901 -70.9554 -37.2653
LeftHand  -0.244104 0.0205437 5.32207
RightShoulder  7.09027 16.2533 29.8753
RightArm  -29.2699 47.8845 24.4804
RightForeArm  -36.2971 73.3382 48.1208
RightHand  0.0627619 -0.466356 1.5057
LeftUpLeg  -87.2397 29.4684 -39.5772
LeftLeg  32.6417 -10.0552 -6.53352
LeftFoot  13.0633 -0.871117 3.65955
LeftToes  1.42787e-010 7.94111e-011 2.6399e-011
